<svg xmlns="http://www.w3.org/2000/svg" style="isolation:isolate" viewBox="0 0 22 22" width="22" height="22">
  <path fill="#fff" d="M11.002 5.873A5.119 5.119 0 0 0 5.876 11a5.119 5.119 0 0 0 5.126 5.127A5.119 5.119 0 0 0 16.129 11a5.119 5.119 0 0 0-5.127-5.127zm0 8.46A3.34 3.34 0 0 1 7.669 11a3.337 3.337 0 0 1 3.333-3.333A3.337 3.337 0 0 1 14.335 11a3.34 3.34 0 0 1-3.333 3.333zm6.532-8.669c0 .664-.535 1.195-1.195 1.195a1.195 1.195 0 1 1 1.195-1.195zm3.396 1.213c-.076-1.601-.442-3.02-1.615-4.189-1.169-1.169-2.588-1.535-4.19-1.615-1.651-.094-6.599-.094-8.25 0-1.597.075-3.016.441-4.19 1.61-1.173 1.169-1.534 2.588-1.615 4.19-.093 1.651-.093 6.599 0 8.25.076 1.601.442 3.02 1.615 4.189 1.174 1.169 2.588 1.535 4.19 1.615 1.651.094 6.599.094 8.25 0 1.602-.075 3.021-.441 4.19-1.615 1.169-1.169 1.534-2.588 1.615-4.189.093-1.651.093-6.595 0-8.246zm-2.133 10.017a3.375 3.375 0 0 1-1.901 1.901c-1.316.522-4.439.401-5.894.401-1.454 0-4.582.116-5.894-.401a3.378 3.378 0 0 1-1.901-1.901c-.522-1.316-.401-4.439-.401-5.894s-.116-4.582.401-5.894a3.375 3.375 0 0 1 1.901-1.901c1.316-.522 4.44-.401 5.894-.401 1.455 0 4.582-.116 5.894.401a3.372 3.372 0 0 1 1.901 1.901c.522 1.316.402 4.439.402 5.894s.12 4.582-.402 5.894z"/>
</svg>
